# xmcd
#
# Track frame offsets:
# 150
# 14665
# 31276
# 48553
# 69219
# 90844
# 107485
# 120632
# 140284
# 154209
# 170565
# 191388
# 206998
#
# Disc length: 3026 seconds
#
# Revision: 0
# Processed by: cddbd v1.5.2PL0 Copyright (c) Steve Scherf et al.
# Submitted via: Audion 3.0.2 (http://www.panic.com/audion/)
#
DISCID=aa0bd00d
DTITLE=feist - the reminder
DYEAR=1900
DGENRE=
TTITLE0=so sorry
TTITLE1=i feel it all
TTITLE2=my moon my man
TTITLE3=the park
TTITLE4=the water
TTITLE5=sealion
TTITLE6=past in present
TTITLE7=the limit to your love
TTITLE8=1234
TTITLE9=brandy alexander
TTITLE10=intuition
TTITLE11=honey honey
TTITLE12=how my heart behaves
EXTD=
EXTT0=
EXTT1=
EXTT2=
EXTT3=
EXTT4=
EXTT5=
EXTT6=
EXTT7=
EXTT8=
EXTT9=
EXTT10=
EXTT11=
EXTT12=
PLAYORDER=
